<?xml version="1.0" encoding="iso-8859-1"?>
<!-- Generator: Adobe Illustrator 18.0.0, SVG Export Plug-In . SVG Version: 6.00 Build 0)  -->
<!DOCTYPE svg PUBLIC "-//W3C//DTD SVG 1.1//EN" "http://www.w3.org/Graphics/SVG/1.1/DTD/svg11.dtd">
<svg version="1.1" id="Capa_1" xmlns="http://www.w3.org/2000/svg" xmlns:xlink="http://www.w3.org/1999/xlink" x="0px" y="0px"
	 viewBox="0 0 493.497 493.497" style="enable-background:new 0 0 493.497 493.497;" xml:space="preserve">
<path d="M455.452,455.738L415.209,146.38c-2.167-16.665-16.361-29.124-33.17-29.124h-34.348v-16.313
	C347.692,45.277,302.414,0,246.749,0c-55.666,0-100.942,45.277-100.942,100.942v16.313h-34.349
	c-16.809,0-31.004,12.459-33.17,29.124L38.044,455.738c-1.242,9.545,1.689,19.15,8.045,26.383
	c6.342,7.234,15.502,11.376,25.126,11.376h351.067c9.625,0,18.784-4.142,25.125-11.376
	C453.764,474.889,456.696,465.283,455.452,455.738z M194.749,100.942c0-28.677,23.322-52.001,52-52.001
	c28.677,0,52.001,23.324,52.001,52.001v16.313H194.749V100.942z"/>
<g>
</g>
<g>
</g>
<g>
</g>
<g>
</g>
<g>
</g>
<g>
</g>
<g>
</g>
<g>
</g>
<g>
</g>
<g>
</g>
<g>
</g>
<g>
</g>
<g>
</g>
<g>
</g>
<g>
</g>
</svg>
